<svg width="24.000000" height="24.000000" viewBox="0 0 24 24" fill="none" xmlns="http://www.w3.org/2000/svg" xmlns:xlink="http://www.w3.org/1999/xlink">
	<desc>
			Created with Pixso.
	</desc>
	<defs>
		<clipPath id="clip3_732">
			<rect id="Icon-Twitter" rx="-0.500000" width="23.000000" height="23.000000" transform="translate(0.500000 0.500000)" fill="white" fill-opacity="0"/>
		</clipPath>
	</defs>
	<rect id="Icon-Twitter" rx="-0.500000" width="23.000000" height="23.000000" transform="translate(0.500000 0.500000)" fill="#FFFFFF" fill-opacity="0"/>
	<g clip-path="url(#clip3_732)">
		<path id="Vector" d="M15.9 6C15.14 6 14.41 6.29 13.87 6.83C13.33 7.36 13.01 8.08 13 8.84L12.97 10.42C12.97 10.5 12.95 10.59 12.91 10.66C12.88 10.74 12.83 10.81 12.76 10.86C12.7 10.92 12.62 10.96 12.54 10.98C12.46 11.01 12.38 11.01 12.29 11L10.73 10.79C8.68 10.51 6.71 9.56 4.82 7.99C4.22 11.3 5.39 13.59 8.2 15.36L9.95 16.46C10.03 16.51 10.1 16.58 10.15 16.67C10.2 16.75 10.23 16.85 10.23 16.95C10.23 17.05 10.21 17.14 10.17 17.23C10.13 17.32 10.06 17.4 9.98 17.45L8.39 18.62C9.34 18.68 10.24 18.63 10.99 18.49C15.7 17.54 18.84 13.99 18.84 8.14C18.84 7.66 17.83 6 15.9 6ZM11 8.81C11.02 7.84 11.32 6.9 11.87 6.11C12.41 5.32 13.18 4.7 14.08 4.35C14.97 3.99 15.95 3.9 16.9 4.1C17.84 4.29 18.71 4.77 19.39 5.45C20.1 5.45 20.7 5.63 22.05 4.81C21.72 6.45 21.55 7.16 20.84 8.14C20.84 15.78 16.14 19.5 11.38 20.45C8.11 21.1 3.36 20.03 2 18.61C2.69 18.55 5.51 18.25 7.14 17.06C5.76 16.15 0.27 12.92 3.88 4.23C5.57 6.21 7.29 7.56 9.03 8.27C10.19 8.74 10.47 8.73 11 8.81L11 8.81Z" fill="#FFFFFF" fill-opacity="1.000000" fill-rule="nonzero"/>
		<path id="Vector" d="M19.39 5.45C18.71 4.77 17.84 4.29 16.9 4.1C15.95 3.9 14.97 3.99 14.08 4.35C13.18 4.7 12.41 5.32 11.87 6.11C11.36 6.85 11.06 7.71 11.01 8.61C11 8.67 11 8.74 11 8.81L11 8.81C10.93 8.8 10.86 8.79 10.8 8.78C10.38 8.73 10.03 8.68 9.03 8.27C7.34 7.58 5.67 6.29 4.02 4.4C3.98 4.35 3.93 4.29 3.88 4.23C3.85 4.3 3.82 4.37 3.79 4.44C0.49 12.63 5.36 15.89 6.96 16.94C6.97 16.95 6.99 16.96 7 16.97C7.05 17 7.1 17.03 7.14 17.06C7.08 17.1 7.02 17.14 6.96 17.18C5.48 18.16 3.19 18.49 2.26 18.58C2.15 18.59 2.06 18.6 2 18.61C2.05 18.67 2.12 18.73 2.19 18.79C3.77 20.12 8.25 21.07 11.38 20.45C16.14 19.5 20.84 15.78 20.84 8.14C21.51 7.21 21.7 6.53 22 5.07C22.02 4.99 22.04 4.9 22.05 4.81C21.97 4.85 21.9 4.9 21.82 4.94C20.83 5.5 20.26 5.48 19.71 5.46C19.6 5.45 19.5 5.45 19.39 5.45ZM21.77 5.2C21.39 5.39 21.04 5.53 20.72 5.59C20.54 5.63 20.36 5.65 20.17 5.66C20.06 5.67 19.91 5.66 19.71 5.66C19.56 5.65 19.46 5.65 19.39 5.65L19.3 5.65L19.24 5.59C19.08 5.43 18.91 5.28 18.72 5.14C18.54 5 18.35 4.88 18.15 4.77C17.94 4.66 17.73 4.56 17.52 4.48C17.3 4.4 17.08 4.34 16.86 4.29C16.63 4.25 16.4 4.22 16.18 4.2C15.95 4.19 15.72 4.19 15.49 4.21C15.26 4.23 15.03 4.27 14.81 4.32C14.59 4.38 14.37 4.45 14.15 4.53C13.94 4.62 13.73 4.72 13.53 4.83C13.34 4.95 13.15 5.08 12.97 5.22C12.79 5.37 12.62 5.52 12.46 5.69C12.31 5.86 12.16 6.03 12.03 6.23C11.9 6.42 11.78 6.61 11.68 6.82C11.58 7.02 11.5 7.24 11.42 7.46C11.35 7.68 11.3 7.9 11.26 8.12C11.23 8.32 11.21 8.52 11.2 8.73L11.56 9.09L10.97 9.01C10.93 9 10.87 8.99 10.79 8.98C10.51 8.95 10.28 8.9 10.09 8.86C9.8 8.78 9.42 8.64 8.95 8.45C7.26 7.76 5.59 6.48 3.94 4.61C3.22 6.42 2.86 8.1 2.87 9.63C2.88 10.8 3.09 11.87 3.52 12.86C3.58 13 3.65 13.14 3.72 13.28C4.15 14.13 4.74 14.89 5.5 15.58C5.77 15.83 6.07 16.07 6.39 16.31C6.58 16.44 6.82 16.61 7.11 16.8C7.18 16.84 7.22 16.87 7.25 16.89L7.49 17.05L7.26 17.22C6.54 17.74 5.54 18.15 4.26 18.45C3.82 18.55 3.36 18.64 2.89 18.71C2.75 18.73 2.61 18.74 2.48 18.76C2.78 18.98 3.17 19.2 3.65 19.4C4.34 19.69 5.12 19.92 6.01 20.11C6.92 20.29 7.83 20.4 8.73 20.43C9.69 20.47 10.56 20.4 11.34 20.25C12.45 20.03 13.49 19.67 14.47 19.18C14.57 19.13 14.67 19.07 14.77 19.02C15.63 18.55 16.41 18 17.09 17.34C17.32 17.13 17.54 16.9 17.75 16.67C17.91 16.48 18.07 16.28 18.23 16.08C18.91 15.19 19.45 14.19 19.84 13.08C20.37 11.6 20.64 9.95 20.64 8.14L20.64 8.07L20.68 8.02C20.85 7.78 20.99 7.56 21.11 7.34C21.22 7.13 21.32 6.9 21.4 6.66C21.48 6.43 21.55 6.16 21.63 5.84C21.67 5.68 21.71 5.47 21.77 5.2ZM14.19 6.31C14.03 6.42 13.87 6.54 13.73 6.68C13.58 6.83 13.45 6.98 13.34 7.14C13.23 7.31 13.13 7.48 13.05 7.67C12.97 7.86 12.91 8.05 12.87 8.24C12.83 8.44 12.8 8.64 12.8 8.84L12.77 10.41C12.77 10.44 12.77 10.47 12.76 10.49C12.76 10.52 12.75 10.55 12.73 10.58C12.72 10.6 12.71 10.63 12.69 10.65C12.67 10.67 12.65 10.69 12.63 10.71C12.61 10.73 12.59 10.74 12.56 10.76C12.54 10.77 12.51 10.78 12.49 10.79C12.46 10.8 12.43 10.8 12.4 10.81C12.38 10.81 12.35 10.81 12.32 10.8L10.76 10.59C8.76 10.32 6.83 9.4 4.95 7.84L4.69 7.62L4.62 7.95C4.32 9.63 4.46 11.09 5.05 12.34C5.62 13.55 6.64 14.61 8.1 15.53L9.84 16.63C9.87 16.65 9.9 16.67 9.92 16.69C9.94 16.71 9.96 16.74 9.98 16.77C10 16.8 10.01 16.83 10.02 16.86C10.03 16.89 10.03 16.92 10.03 16.95C10.03 16.99 10.03 17.02 10.02 17.05C10.02 17.08 10.01 17.11 9.99 17.14C9.98 17.17 9.96 17.2 9.94 17.23C9.92 17.25 9.89 17.27 9.87 17.29L7.83 18.78L8.38 18.82C9.38 18.88 10.26 18.83 11.02 18.68C12.23 18.44 13.33 18.04 14.3 17.47C14.94 17.1 15.51 16.67 16.03 16.17C16.32 15.89 16.59 15.6 16.84 15.28C17.55 14.37 18.1 13.33 18.47 12.15C18.85 10.94 19.04 9.6 19.04 8.14C19.04 7.97 18.97 7.76 18.83 7.5C18.67 7.23 18.48 6.98 18.23 6.74C18.01 6.53 17.78 6.36 17.52 6.21C17.43 6.17 17.35 6.12 17.25 6.08C17.1 6.01 16.95 5.96 16.79 5.92C16.51 5.84 16.21 5.8 15.9 5.8C15.7 5.8 15.5 5.82 15.3 5.85C15.11 5.89 14.91 5.95 14.73 6.03C14.54 6.1 14.36 6.2 14.19 6.31ZM15.9 6C15.14 6 14.41 6.29 13.87 6.83C13.33 7.36 13.01 8.08 13 8.84L12.97 10.42C12.97 10.5 12.95 10.59 12.91 10.66C12.88 10.74 12.83 10.81 12.76 10.86C12.7 10.92 12.62 10.96 12.54 10.98C12.46 11.01 12.38 11.01 12.29 11L10.73 10.79C8.74 10.52 6.83 9.62 5 8.14C4.94 8.09 4.88 8.04 4.82 7.99C4.81 8.07 4.79 8.14 4.78 8.22C4.28 11.41 5.46 13.63 8.2 15.36L9.95 16.46C10.03 16.51 10.1 16.58 10.15 16.67C10.2 16.75 10.23 16.85 10.23 16.95C10.23 17.05 10.21 17.14 10.17 17.23C10.13 17.32 10.06 17.4 9.98 17.45L8.65 18.43L8.39 18.62C8.5 18.62 8.61 18.63 8.71 18.63C9.54 18.66 10.32 18.62 10.99 18.49C15.7 17.54 18.84 13.99 18.84 8.14C18.84 7.66 17.83 6 15.9 6Z" fill="#000000" fill-opacity="1.000000" fill-rule="evenodd"/>
	</g>
</svg>
